<svg xmlns="http://www.w3.org/2000/svg" xmlns:xlink="http://www.w3.org/1999/xlink" width="44.959" height="57.671" viewBox="0 0 44.959 57.671">
  <defs>
    <clipPath id="clip-path">
      <rect id="Rectangle_4070" data-name="Rectangle 4070" width="2.126" height="10.63" fill="#3dc285"/>
    </clipPath>
    <clipPath id="clip-path-2">
      <rect id="Rectangle_4071" data-name="Rectangle 4071" width="31.463" height="10.736" transform="translate(0)" fill="#3dc285"/>
    </clipPath>
    <clipPath id="clip-path-3">
      <rect id="Rectangle_4072" data-name="Rectangle 4072" width="2.126" height="10.63" transform="translate(0)" fill="#f68250"/>
    </clipPath>
    <clipPath id="clip-path-4">
      <rect id="Rectangle_4073" data-name="Rectangle 4073" width="31.463" height="10.736" fill="#f68250"/>
    </clipPath>
    <clipPath id="clip-path-5">
      <rect id="Rectangle_4074" data-name="Rectangle 4074" width="2.126" height="10.63" transform="translate(0)" fill="#ffc400"/>
    </clipPath>
    <clipPath id="clip-path-6">
      <rect id="Rectangle_4075" data-name="Rectangle 4075" width="31.463" height="10.736" fill="#ffc400"/>
    </clipPath>
    <clipPath id="clip-path-7">
      <rect id="Rectangle_4076" data-name="Rectangle 4076" width="8.291" height="18.814" fill="#c3c6c7"/>
    </clipPath>
  </defs>
  <g id="Icon_webproject" transform="translate(-1747.037 -2216)">
    <path id="Path_16141" data-name="Path 16141" d="M238.057,540.7s.077.021.19-.093l-.092.093" transform="translate(1532.626 1717.927)" fill="#640d0d"/>
    <path id="Path_16142" data-name="Path 16142" d="M331.065,540.544a.165.165,0,0,0,.109.043c.081.009-.069,0-.069,0" transform="translate(1449.504 1718.036)" fill="#640d0d"/>
    <g id="Group_3966" data-name="Group 3966" transform="translate(1757.135 2227.086)">
      <g id="Group_3958" data-name="Group 3958" transform="translate(8.969 10.165)">
        <path id="Path_16143" data-name="Path 16143" d="M246.961,536.208c.292,0,.369.176.171.391l-1.884,2.044a1.39,1.39,0,0,1-.892.391h-4.236a1.476,1.476,0,0,1-.907-.376l-2.067-2.073c-.206-.207-.136-.376.156-.376h9.658Z" transform="translate(-237.028 -536.208)" fill="#3dc285"/>
      </g>
      <g id="Group_3965" data-name="Group 3965" transform="translate(0 0)">
        <g id="Mask_Group_36" data-name="Mask Group 36" transform="translate(0 0.213)" clip-path="url(#clip-path)">
          <g id="Group_3960" data-name="Group 3960" transform="translate(2.454 0.204)">
            <g id="Group_3959" data-name="Group 3959" transform="translate(0)">
              <path id="Path_16144" data-name="Path 16144" d="M127.193,549.5a.337.337,0,0,1,.351.319v9.309a.337.337,0,0,1-.351.319H89.767a.337.337,0,0,1-.351-.319v-9.309a.337.337,0,0,1,.351-.319H105.85a1.026,1.026,0,0,1,.6.226l2.674,2.438a1.026,1.026,0,0,0,.6.226h5.257a.962.962,0,0,0,.588-.234l2.453-2.421a.962.962,0,0,1,.588-.234h8.586Z" transform="translate(-89.416 -549.498)" fill="#3dc285"/>
            </g>
          </g>
          <g id="Group_3962" data-name="Group 3962" transform="translate(0.32 0.204)">
            <g id="Group_3961" data-name="Group 3961" transform="translate(0 0)">
              <path id="Path_16145" data-name="Path 16145" d="M127.393,549.5a.339.339,0,0,1,.352.321v9.358a.339.339,0,0,1-.352.321H89.768a.339.339,0,0,1-.352-.321v-9.358a.339.339,0,0,1,.352-.321h16.169a1.032,1.032,0,0,1,.6.227l2.688,2.451a1.032,1.032,0,0,0,.6.227h5.284a.967.967,0,0,0,.591-.236l2.466-2.433a.967.967,0,0,1,.591-.236h8.632Z" transform="translate(-89.416 -549.498)" fill="#3dc285"/>
            </g>
          </g>
        </g>
        <g id="Mask_Group_37" data-name="Mask Group 37" transform="translate(1.913)" clip-path="url(#clip-path-2)">
          <g id="Group_3964" data-name="Group 3964" transform="translate(-4.174 0.416)">
            <g id="Group_3963" data-name="Group 3963" transform="translate(0 0)">
              <path id="Path_16146" data-name="Path 16146" d="M123.958,549.5a.322.322,0,0,1,.321.321v9.358a.321.321,0,0,1-.321.321H89.737a.321.321,0,0,1-.321-.321v-9.358a.322.322,0,0,1,.321-.321h14.706a.891.891,0,0,1,.547.227l2.445,2.451a.891.891,0,0,0,.547.227h4.806a.838.838,0,0,0,.538-.236l2.243-2.433a.838.838,0,0,1,.538-.236h7.851Z" transform="translate(-89.416 -549.498)" fill="#3dc285"/>
            </g>
          </g>
        </g>
      </g>
    </g>
    <g id="Group_3975" data-name="Group 3975" transform="translate(1756.603 2239.123)">
      <g id="Group_3967" data-name="Group 3967" transform="translate(9.501 9.981)">
        <path id="Path_16147" data-name="Path 16147" d="M246.961,536.208c.292,0,.369.176.171.391l-1.884,2.044a1.39,1.39,0,0,1-.892.391h-4.236a1.476,1.476,0,0,1-.907-.376l-2.067-2.073c-.206-.207-.136-.376.156-.376h9.658Z" transform="translate(-237.028 -536.208)" fill="#f68250"/>
      </g>
      <g id="Group_3974" data-name="Group 3974" transform="translate(0)">
        <g id="Mask_Group_38" data-name="Mask Group 38" transform="translate(31.251 0.213)" clip-path="url(#clip-path-3)">
          <g id="Group_3969" data-name="Group 3969" transform="translate(-37.862 0.204)">
            <g id="Group_3968" data-name="Group 3968">
              <path id="Path_16148" data-name="Path 16148" d="M89.761,549.5a.334.334,0,0,0-.345.319v9.309a.334.334,0,0,0,.345.319H126.64a.334.334,0,0,0,.345-.319v-9.309a.334.334,0,0,0-.345-.319H110.792a1,1,0,0,0-.589.226l-2.635,2.438a1,1,0,0,1-.589.226H101.8a.941.941,0,0,1-.58-.234L98.8,549.732a.94.94,0,0,0-.58-.234H89.761Z" transform="translate(-89.416 -549.498)" fill="#f68250"/>
            </g>
          </g>
          <g id="Group_3971" data-name="Group 3971" transform="translate(-35.958 0.204)">
            <g id="Group_3970" data-name="Group 3970">
              <path id="Path_16149" data-name="Path 16149" d="M89.763,549.5a.336.336,0,0,0-.347.321v9.358a.336.336,0,0,0,.347.321h37.074a.336.336,0,0,0,.347-.321v-9.358a.336.336,0,0,0-.347-.321H110.905a1.008,1.008,0,0,0-.593.227l-2.649,2.451a1.008,1.008,0,0,1-.593.227h-5.207a.946.946,0,0,1-.583-.236l-2.43-2.433a.945.945,0,0,0-.583-.236H89.763Z" transform="translate(-89.416 -549.498)" fill="#f68250"/>
            </g>
          </g>
        </g>
        <g id="Mask_Group_39" data-name="Mask Group 39" clip-path="url(#clip-path-4)">
          <g id="Group_3973" data-name="Group 3973" transform="translate(0.775 0.416)">
            <g id="Group_3972" data-name="Group 3972">
              <path id="Path_16150" data-name="Path 16150" d="M89.737,549.5a.322.322,0,0,0-.321.321v9.358a.321.321,0,0,0,.321.321h34.221a.321.321,0,0,0,.321-.321v-9.358a.322.322,0,0,0-.321-.321H109.252a.891.891,0,0,0-.547.227l-2.445,2.451a.891.891,0,0,1-.547.227h-4.806a.838.838,0,0,1-.538-.236l-2.243-2.433a.838.838,0,0,0-.538-.236H89.737Z" transform="translate(-89.416 -549.498)" fill="#f68250"/>
            </g>
          </g>
        </g>
      </g>
    </g>
    <g id="Group_3984" data-name="Group 3984" transform="translate(1756.603 2251.306)">
      <g id="Group_3976" data-name="Group 3976" transform="translate(9.501 9.981)">
        <path id="Path_16151" data-name="Path 16151" d="M246.961,536.208c.292,0,.369.176.171.391l-1.884,2.044a1.39,1.39,0,0,1-.892.391h-4.236a1.476,1.476,0,0,1-.907-.376l-2.067-2.073c-.206-.207-.136-.376.156-.376h9.658Z" transform="translate(-237.028 -536.208)" fill="#ffc400"/>
      </g>
      <g id="Group_3983" data-name="Group 3983" transform="translate(0)">
        <g id="Mask_Group_40" data-name="Mask Group 40" transform="translate(31.251 0.213)" clip-path="url(#clip-path-5)">
          <g id="Group_3978" data-name="Group 3978" transform="translate(-37.862 0.204)">
            <g id="Group_3977" data-name="Group 3977">
              <path id="Path_16152" data-name="Path 16152" d="M89.761,549.5a.334.334,0,0,0-.345.319v9.309a.334.334,0,0,0,.345.319H126.64a.334.334,0,0,0,.345-.319v-9.309a.334.334,0,0,0-.345-.319H110.792a1,1,0,0,0-.589.226l-2.635,2.438a1,1,0,0,1-.589.226H101.8a.941.941,0,0,1-.58-.234L98.8,549.732a.94.94,0,0,0-.58-.234H89.761Z" transform="translate(-89.416 -549.498)" fill="#ffc400"/>
            </g>
          </g>
          <g id="Group_3980" data-name="Group 3980" transform="translate(-35.958 0.204)">
            <g id="Group_3979" data-name="Group 3979">
              <path id="Path_16153" data-name="Path 16153" d="M89.763,549.5a.336.336,0,0,0-.347.321v9.358a.336.336,0,0,0,.347.321h37.074a.336.336,0,0,0,.347-.321v-9.358a.336.336,0,0,0-.347-.321H110.905a1.008,1.008,0,0,0-.593.227l-2.649,2.451a1.008,1.008,0,0,1-.593.227h-5.207a.946.946,0,0,1-.583-.236l-2.43-2.433a.945.945,0,0,0-.583-.236H89.763Z" transform="translate(-89.416 -549.498)" fill="#ffc400"/>
            </g>
          </g>
        </g>
        <g id="Mask_Group_41" data-name="Mask Group 41" clip-path="url(#clip-path-6)">
          <g id="Group_3982" data-name="Group 3982" transform="translate(0.775 0.416)">
            <g id="Group_3981" data-name="Group 3981">
              <path id="Path_16154" data-name="Path 16154" d="M89.737,549.5a.322.322,0,0,0-.321.321v9.358a.321.321,0,0,0,.321.321h34.221a.321.321,0,0,0,.321-.321v-9.358a.322.322,0,0,0-.321-.321H109.252a.891.891,0,0,0-.547.227l-2.445,2.451a.891.891,0,0,1-.547.227h-4.806a.838.838,0,0,1-.538-.236l-2.243-2.433a.838.838,0,0,0-.538-.236H89.737Z" transform="translate(-89.416 -549.498)" fill="#ffc400"/>
            </g>
          </g>
        </g>
      </g>
    </g>
    <g id="Group_4005" data-name="Group 4005" transform="translate(1747.037 2216)">
      <g id="Group_3985" data-name="Group 3985" transform="translate(6.857 9.726)">
        <path id="Path_16155" data-name="Path 16155" d="M80.107,540.784s.063-.2.239-.2h-.239" transform="translate(-80.107 -540.583)" fill="#c3c6c7"/>
      </g>
      <path id="Path_16156" data-name="Path 16156" d="M238.057,540.57s.077-.021.19.093l-.092-.093" transform="translate(-214.411 -530.844)" fill="#c3c6c7"/>
      <path id="Path_16157" data-name="Path 16157" d="M331.065,540.591a.165.165,0,0,1,.109-.043c.081-.009-.069,0-.069,0" transform="translate(-297.533 -530.822)" fill="#c3c6c7"/>
      <g id="Group_4004" data-name="Group 4004" transform="translate(0 0)">
        <g id="Group_3991" data-name="Group 3991" transform="translate(1.413)">
          <g id="Group_3986" data-name="Group 3986" transform="translate(22.124 9.261)">
            <path id="Path_16158" data-name="Path 16158" d="M246.961,536.208c.292,0,.369.176.171.391l-1.884,2.044a1.39,1.39,0,0,1-.892.391h-4.236a1.476,1.476,0,0,1-.907-.376l-2.067-2.073c-.206-.207-.136-.376.156-.376h9.658Z" transform="translate(-237.028 -536.208)" fill="#c3c6c7"/>
          </g>
          <g id="Group_3990" data-name="Group 3990" transform="translate(0)">
            <g id="Group_3989" data-name="Group 3989" transform="translate(0)">
              <g id="Group_3987" data-name="Group 3987">
                <path id="Path_16159" data-name="Path 16159" d="M71.376,449.082a.213.213,0,0,1,.213.213v9.3a.213.213,0,0,1-.213.213H29.106a.213.213,0,0,1-.213-.213v-9.3a.213.213,0,0,1,.213-.213h5.018a.59.59,0,0,1,.363.151l2.519,2.524a.591.591,0,0,0,.363.151h4.874a.556.556,0,0,0,.357-.156l2.316-2.513a.556.556,0,0,1,.357-.156h26.1Z" transform="translate(-28.893 -449.082)" fill="#c3c6c7"/>
              </g>
              <g id="Group_3988" data-name="Group 3988" transform="translate(0 8.424)">
                <path id="Path_16160" data-name="Path 16160" d="M34.125,528.334c.117,0,.213.176.213.391v32.13c0,.215-.1.391-.213.391H29.107c-.117,0-.213-.176-.213-.391v-32.13c0-.215.1-.391.213-.391Z" transform="translate(-28.894 -528.334)" fill="#c3c6c7"/>
              </g>
            </g>
          </g>
        </g>
        <g id="Group_4003" data-name="Group 4003" transform="translate(0 33.855)">
          <g id="Group_3993" data-name="Group 3993" transform="translate(10.28 13.87)">
            <g id="Group_3992" data-name="Group 3992" transform="translate(0 0)">
              <path id="Path_16161" data-name="Path 16161" d="M89.735,549.5a.32.32,0,0,0-.319.319v9.309a.32.32,0,0,0,.319.319h34.041a.32.32,0,0,0,.319-.319v-9.309a.32.32,0,0,0-.319-.319H109.147a.886.886,0,0,0-.544.226l-2.432,2.438a.886.886,0,0,1-.544.226h-4.781a.834.834,0,0,1-.535-.234l-2.231-2.421a.834.834,0,0,0-.535-.234h-7.81Z" transform="translate(-89.416 -549.498)" fill="#c3c6c7"/>
            </g>
          </g>
          <g id="Mask_Group_42" data-name="Mask Group 42" transform="translate(0 0)" clip-path="url(#clip-path-7)">
            <g id="Group_4002" data-name="Group 4002" transform="translate(1.399 1.752)">
              <g id="Group_4001" data-name="Group 4001" transform="translate(0 0)">
                <g id="Group_3994" data-name="Group 3994" transform="translate(22.124 14.222)">
                  <path id="Path_16162" data-name="Path 16162" d="M246.961,539.033c.292,0,.369-.176.171-.391l-1.884-2.044a1.391,1.391,0,0,0-.892-.391h-4.236a1.477,1.477,0,0,0-.907.376l-2.067,2.073c-.206.207-.136.376.156.376Z" transform="translate(-237.028 -536.208)" fill="#c3c6c7"/>
                </g>
                <g id="Group_4000" data-name="Group 4000">
                  <g id="Group_3998" data-name="Group 3998">
                    <g id="Group_3997" data-name="Group 3997">
                      <g id="Group_3995" data-name="Group 3995" transform="translate(0 16.582)">
                        <path id="Path_16163" data-name="Path 16163" d="M71.376,458.808a.213.213,0,0,0,.213-.213v-9.3a.213.213,0,0,0-.213-.213H29.106a.213.213,0,0,0-.213.213v9.3a.213.213,0,0,0,.213.213h5.018a.59.59,0,0,0,.363-.151l2.519-2.524a.59.59,0,0,1,.363-.151h4.874a.556.556,0,0,1,.357.156l2.316,2.513a.556.556,0,0,0,.357.156H71.376Z" transform="translate(-28.893 -449.082)" fill="#c3c6c7"/>
                      </g>
                      <g id="Group_3996" data-name="Group 3996" transform="translate(0)">
                        <path id="Path_16164" data-name="Path 16164" d="M34.125,546.218a.213.213,0,0,0,.213-.213V528.547a.213.213,0,0,0-.213-.213H29.107a.213.213,0,0,0-.213.213v17.459a.213.213,0,0,0,.213.213Z" transform="translate(-28.894 -528.334)" fill="#c3c6c7"/>
                      </g>
                    </g>
                  </g>
                  <g id="Group_3999" data-name="Group 3999" transform="translate(5.444 16.381)">
                    <path id="Path_16165" data-name="Path 16165" d="M80.107,540.583s.063.2.239.2h-.239" transform="translate(-80.107 -540.583)" fill="#c3c6c7"/>
                  </g>
                </g>
              </g>
            </g>
          </g>
          <path id="Rectangle_4077" data-name="Rectangle 4077" d="M0,0H10.311a0,0,0,0,1,0,0V9.939a0,0,0,0,1,0,0H3a3,3,0,0,1-3-3V0A0,0,0,0,1,0,0Z" transform="translate(1.403 13.872)" fill="#c3c6c7"/>
        </g>
      </g>
    </g>
  </g>
</svg>
