<svg xmlns="http://www.w3.org/2000/svg" width="60.965" height="61.835" viewBox="0 0 60.965 61.835">
  <g id="etkilesimlivideo" transform="translate(-5767 -1022)">
    <g id="Group_3953" data-name="Group 3953" transform="translate(5769.37 1022)">
      <g id="Group_3942" data-name="Group 3942" transform="translate(40.247 8.696)">
        <path id="Path_16127" data-name="Path 16127" d="M357.406,81.879a.933.933,0,0,1-.66-1.593l8-8.006a.933.933,0,0,1,1.32,1.319l-8,8.006a.93.93,0,0,1-.66.274Z" transform="translate(-356.472 -72.006)" fill="#596c76"/>
      </g>
      <g id="Group_3943" data-name="Group 3943" transform="translate(42.78 22.828)">
        <path id="Path_16128" data-name="Path 16128" d="M385.568,190.883h-7.191a.933.933,0,0,1,0-1.866h7.191a.933.933,0,0,1,0,1.866Z" transform="translate(-377.443 -189.017)" fill="#596c76"/>
      </g>
      <g id="Group_3944" data-name="Group 3944" transform="translate(23.43 12.118)">
        <path id="Path_16129" data-name="Path 16129" d="M222.74,106.785a.93.93,0,0,1-.66-.274l-4.581-4.585a.933.933,0,1,1,1.32-1.319l4.581,4.585a.933.933,0,0,1-.66,1.593Z" transform="translate(-217.225 -100.334)" fill="#596c76"/>
      </g>
      <g id="Group_3945" data-name="Group 3945" transform="translate(12.499 25.066)">
        <path id="Path_16130" data-name="Path 16130" d="M127.653,217.094a.933.933,0,0,1-.468-1.741l13.272-7.678a.933.933,0,0,1,.934,1.616l-13.272,7.678A.929.929,0,0,1,127.653,217.094Z" transform="translate(-126.719 -207.55)" fill="#596c76"/>
      </g>
      <g id="Group_3946" data-name="Group 3946" transform="translate(0)">
        <path id="Path_16131" data-name="Path 16131" d="M48.826,2.214A2.218,2.218,0,0,0,46.615,0H25.437a2.218,2.218,0,0,0-2.211,2.214v9.462a2.218,2.218,0,0,0,2.212,2.214H46.615a2.218,2.218,0,0,0,2.212-2.214V2.214Z" transform="translate(-23.226)" fill="#ffc400" fill-rule="evenodd"/>
      </g>
      <g id="Group_3947" data-name="Group 3947" transform="translate(26.409 15.1)">
        <path id="Path_16132" data-name="Path 16132" d="M258.9,131.446a8.651,8.651,0,1,0-10.836,10.535c2.088.692,5.347,2.433,8.335-1.917a8.658,8.658,0,0,0,2.5-8.618Z" transform="translate(-241.896 -125.026)" fill="#f68250" fill-rule="evenodd"/>
      </g>
      <g id="Group_3948" data-name="Group 3948" transform="translate(23.055 21.353)">
        <path id="Path_16133" data-name="Path 16133" d="M233.571,190.173v-2.115a2.486,2.486,0,1,0-4.963,0v-8.625a2.485,2.485,0,1,0-4.963,0v17.83c0,1.885-.4,3.308-1.672,1.723-1.965-2.86-3.407-4.417-6.166-3.937-1.619.286-2.236,1.79-1.129,3.216l7.859,11.538a9.548,9.548,0,0,1,1.915,6.256,1.234,1.234,0,0,0,1.231,1.229h14.7a1.234,1.234,0,0,0,1.231-1.229v-3.806c0-3.192,1.457-2.892,1.876-6.793V192.288a2.484,2.484,0,1,0-4.959,0v-2.115A2.485,2.485,0,1,0,233.571,190.173Z" transform="translate(-214.12 -176.806)" fill="#ffe6b3" fill-rule="evenodd"/>
      </g>
      <g id="Group_3949" data-name="Group 3949" transform="translate(2.848 3.724)">
        <path id="Path_16134" data-name="Path 16134" d="M65.13,32.7H55.388a.933.933,0,1,1,0-1.866H65.13a.933.933,0,0,1,0,1.866Zm-14.55,0H47.741a.933.933,0,1,1,0-1.866H50.58a.933.933,0,1,1,0,1.866Z" transform="translate(-46.808 -30.834)" fill="#596c76"/>
      </g>
      <g id="Group_3950" data-name="Group 3950" transform="translate(2.848 8.197)">
        <path id="Path_16135" data-name="Path 16135" d="M65.13,69.739H62.291a.933.933,0,0,1,0-1.866H65.13a.933.933,0,0,1,0,1.866Zm-7.647,0H47.741a.933.933,0,1,1,0-1.866h9.742a.933.933,0,0,1,0,1.866Z" transform="translate(-46.808 -67.873)" fill="#596c76"/>
      </g>
      <g id="Group_3951" data-name="Group 3951" transform="translate(50.531 20.262)">
        <path id="Path_16136" data-name="Path 16136" d="M448.61,171.271a3.494,3.494,0,1,0-3.492,3.5A3.5,3.5,0,0,0,448.61,171.271Z" transform="translate(-441.623 -167.772)" fill="#3dc285" fill-rule="evenodd"/>
      </g>
      <g id="Group_3952" data-name="Group 3952" transform="translate(47.927 1.439)">
        <path id="Path_16137" data-name="Path 16137" d="M429.168,13.475a5.335,5.335,0,1,0,0,7.549,5.331,5.331,0,0,0,0-7.549Z" transform="translate(-420.063 -11.913)" fill="#3dc285" fill-rule="evenodd"/>
      </g>
    </g>
    <g id="Group_3955" data-name="Group 3955" transform="translate(5767 1051.214)">
      <g id="Group_3954" data-name="Group 3954" transform="translate(0 0)">
        <path id="Path_16138" data-name="Path 16138" d="M20.617,247.327a9.117,9.117,0,1,0-3.337,12.463A9.108,9.108,0,0,0,20.617,247.327Z" transform="translate(-3.607 -242.763)" fill="#3dc285" fill-rule="evenodd"/>
      </g>
      <path id="Icon_awesome-play" data-name="Icon awesome-play" d="M6.373,3.226,1.087.1A.717.717,0,0,0,0,.721V6.97a.72.72,0,0,0,1.087.62L6.373,4.466A.72.72,0,0,0,6.373,3.226Z" transform="translate(6.374 5.309)" fill="#ffc400"/>
    </g>
  </g>
</svg>
